<svg width="17" height="17" viewBox="0 0 17 17" fill="none" xmlns="http://www.w3.org/2000/svg">
<path d="M8.64801 16.0738C12.8719 16.0738 16.296 12.6497 16.296 8.42584C16.296 4.20196 12.8719 0.777832 8.64801 0.777832C4.42413 0.777832 1 4.20196 1 8.42584C1 12.6497 4.42413 16.0738 8.64801 16.0738Z" stroke="#FF0000" stroke-width="1.24022" stroke-linecap="round" stroke-linejoin="round"/>
<path d="M8.48169 5.30581L8.48182 5.3059C8.53348 5.34263 8.59454 5.36372 8.65782 5.3667C8.74762 5.3665 8.83393 5.33155 8.8986 5.26904L8.48169 5.30581ZM8.48169 5.30581C8.42888 5.26828 8.38827 5.21598 8.36492 5.15535L8.36484 5.15514M8.48169 5.30581L8.36484 5.15514M8.36484 5.15514C8.3415 5.09463 8.3365 5.02859 8.35049 4.96526L8.35054 4.96504M8.36484 5.15514L8.35054 4.96504M8.35054 4.96504C8.36447 4.90175 8.39675 4.84393 8.44345 4.79874L8.35054 4.96504ZM8.61288 4.71124L8.61286 4.71124C8.54909 4.72312 8.49019 4.75352 8.44346 4.79872L8.61288 4.71124ZM8.61288 4.71124C8.67673 4.69934 8.74271 4.70651 8.80245 4.73182L8.80247 4.73183M8.61288 4.71124L8.80247 4.73183M8.80247 4.73183C8.86224 4.75714 8.91322 4.79948 8.94907 4.85358L8.94918 4.85375M8.80247 4.73183L8.94918 4.85375M8.94918 4.85375C8.98418 4.90651 9.00326 4.96824 9.00418 5.03158M8.94918 4.85375L9.00418 5.03158M8.47522 7.51643H8.47505V11.9647C8.47505 11.9864 8.47933 12.0078 8.4876 12.0278L8.48776 12.0281C8.49594 12.0479 8.50807 12.0661 8.52346 12.0815C8.53867 12.0967 8.55692 12.109 8.57724 12.1174L8.47522 7.51643ZM8.47522 7.51643L8.47488 7.50462M8.47522 7.51643L8.47488 7.50462M8.47488 7.50462C8.47424 7.48205 8.47817 7.45979 8.48626 7.43924C8.49447 7.41837 8.50672 7.39962 8.52215 7.384L8.52259 7.38356M8.47488 7.50462L8.52259 7.38356M8.52259 7.38356C8.53821 7.3677 8.55691 7.35517 8.57743 7.34676C8.59821 7.33825 8.62039 7.33408 8.64247 7.3344L8.64247 7.33446M8.52259 7.38356L8.64247 7.33446M8.64247 7.33446L8.64904 7.33445M8.64247 7.33446L8.64904 7.33445M8.64904 7.33445C8.67025 7.33443 8.69116 7.33871 8.71047 7.34695L8.71084 7.34711M8.64904 7.33445L8.71084 7.34711M8.71084 7.34711C8.7304 7.35544 8.74803 7.36763 8.76263 7.38287L9.0611 7.09682L8.71084 7.34711ZM8.10572 12.1861C8.13474 12.2563 8.1774 12.3201 8.23114 12.3739C8.28489 12.4276 8.34872 12.4702 8.41891 12.4993C8.48911 12.5284 8.56443 12.5434 8.64042 12.5434L8.10572 12.1861ZM8.10572 12.1861C8.07661 12.1159 8.06165 12.0407 8.06165 11.9647V7.51643L8.10572 12.1861ZM9.00418 5.03158C9.00101 5.12136 8.96322 5.20645 8.89868 5.26895L9.00418 5.03158ZM8.64042 12.13C8.66208 12.13 8.68358 12.1257 8.70375 12.1173L8.64042 12.13ZM8.64042 12.13C8.61866 12.13 8.59715 12.1257 8.57725 12.1174L8.64042 12.13Z" fill="#675DFF" stroke="#FF0000" stroke-width="0.826811"/>
</svg>
