<svg width="84" height="20" viewBox="0 0 84 20" fill="none" xmlns="http://www.w3.org/2000/svg">
<path d="M2.27655 19C1.65146 19 1.26169 18.9595 1.10726 18.8786C0.952821 18.7977 0.868249 18.5881 0.853541 18.2499L0.379204 1.27301C0.37185 0.890595 0.500546 0.644234 0.765292 0.533923C1.03739 0.416258 1.57792 0.357426 2.38686 0.357426C3.12227 0.357426 3.63338 0.397873 3.92018 0.478768C4.21435 0.559663 4.3982 0.721452 4.47174 0.964136L7.53838 10.3406H7.65972L10.6822 0.964136C10.7484 0.721452 10.9212 0.559663 11.2007 0.478768C11.4802 0.397873 11.9655 0.357426 12.6568 0.357426C13.5246 0.357426 14.0798 0.416258 14.3225 0.533923C14.5725 0.644234 14.6902 0.890595 14.6755 1.27301L14.1901 18.2499C14.1828 18.5881 14.1019 18.7977 13.9474 18.8786C13.793 18.9595 13.3996 19 12.7671 19C12.142 19 11.7523 18.9595 11.5978 18.8786C11.4434 18.7977 11.3625 18.5881 11.3551 18.2499L11.4324 6.36937H11.289L8.7518 15.1832C8.66355 15.4627 8.54956 15.6428 8.40984 15.7237C8.27011 15.8046 7.95021 15.8451 7.45013 15.8451C7.00889 15.8451 6.72576 15.8046 6.60074 15.7237C6.48307 15.6355 6.38012 15.4553 6.29187 15.1832L3.78781 6.36937H3.64441L3.69956 18.2499C3.69221 18.5881 3.61131 18.7977 3.45688 18.8786C3.30244 18.9595 2.909 19 2.27655 19Z" fill="#FF0000"/>
<path d="M19.4409 19C18.7644 19 18.3415 18.9595 18.1723 18.8786C18.0106 18.7977 17.9223 18.5881 17.9076 18.2499L17.4333 1.27301C17.4259 0.890595 17.5068 0.644234 17.676 0.533923C17.8451 0.416258 18.176 0.357426 18.6687 0.357426C18.9482 0.357426 19.3527 0.357426 19.8822 0.357426C20.419 0.357426 20.9926 0.361103 21.603 0.368457C22.2208 0.368457 22.7944 0.368457 23.3239 0.368457C23.8607 0.368457 24.2689 0.368457 24.5483 0.368457C24.9381 0.368457 25.1661 0.438321 25.2322 0.578048C25.2984 0.717775 25.3315 1.00826 25.3315 1.4495C25.3315 1.8981 25.2984 2.19226 25.2322 2.33199C25.1661 2.46436 24.9381 2.53055 24.5483 2.53055H21.4155L21.2169 9.30364H23.8754C24.2578 9.30364 24.4821 9.36983 24.5483 9.5022C24.6219 9.63457 24.6586 9.9177 24.6586 10.3516C24.6586 10.7781 24.6219 11.0613 24.5483 11.201C24.4821 11.3334 24.2578 11.3995 23.8754 11.3995H21.1618L21.0073 16.9482H24.1402C24.5226 16.9482 24.7469 17.018 24.8131 17.1578C24.8866 17.2975 24.9234 17.5696 24.9234 17.9741C24.9234 18.3712 24.8866 18.6433 24.8131 18.7904C24.7469 18.9301 24.5226 19 24.1402 19H19.4409Z" fill="#FF0000"/>
<path d="M32.4025 19.1323C31.2185 19.1323 30.2587 18.9742 29.5233 18.658C28.7879 18.3418 28.2511 17.9189 27.9128 17.3894C27.5745 16.8599 27.3943 16.2753 27.3723 15.6355L27.0634 3.94253C27.034 2.83942 27.4385 1.9459 28.2768 1.26198C29.1225 0.578048 30.4978 0.236084 32.4025 0.236084C34.3072 0.236084 35.6787 0.578048 36.517 1.26198C37.3628 1.9459 37.7709 2.83942 37.7415 3.94253L37.6091 9.30364C37.6018 9.75224 37.4694 10.0354 37.212 10.153C36.9546 10.2633 36.484 10.3185 35.8 10.3185C35.1087 10.3185 34.6381 10.2633 34.3881 10.153C34.1454 10.0354 34.0167 9.75224 34.002 9.30364L33.8586 3.60057C33.8438 2.95341 33.7152 2.54894 33.4725 2.38715C33.2298 2.218 32.8731 2.13343 32.4025 2.13343C31.9318 2.13343 31.5751 2.218 31.3324 2.38715C31.0898 2.54894 30.9611 2.95341 30.9463 3.60057L30.6264 15.7348C30.6117 16.3525 30.7404 16.7754 31.0125 17.0033C31.292 17.224 31.7553 17.3343 32.4025 17.3343C33.057 17.3343 33.5203 17.224 33.7924 17.0033C34.0718 16.7754 34.2005 16.3525 34.1785 15.7348L34.1343 14.4221C34.1196 13.9735 34.2373 13.694 34.4873 13.5837C34.7447 13.466 35.2117 13.4072 35.8883 13.4072C36.5575 13.4072 36.9877 13.466 37.1789 13.5837C37.3775 13.694 37.4694 13.9735 37.4547 14.4221L37.4216 15.6575C37.4069 16.2973 37.2267 16.882 36.8811 17.4115C36.5428 17.9336 36.0096 18.3528 35.2816 18.669C34.5535 18.9779 33.5938 19.1323 32.4025 19.1323Z" fill="#FF0000"/>
<path d="M43.6431 19C42.9666 19 42.5474 18.9595 42.3856 18.8786C42.2238 18.7977 42.1356 18.5881 42.1208 18.2499L41.6686 2.51952H39.6058C39.2233 2.51952 38.9954 2.45333 38.9218 2.32096C38.8556 2.18123 38.8225 1.88707 38.8225 1.43847C38.8225 0.997229 38.8556 0.706744 38.9218 0.567017C38.9954 0.42729 39.2233 0.357426 39.6058 0.357426H47.6805C48.0703 0.357426 48.2983 0.42729 48.3644 0.567017C48.438 0.706744 48.4748 0.997229 48.4748 1.43847C48.4748 1.88707 48.438 2.18123 48.3644 2.32096C48.2983 2.45333 48.0703 2.51952 47.6805 2.51952H45.6177L45.1765 18.305C45.1691 18.5918 45.0809 18.7793 44.9117 18.8676C44.7426 18.9558 44.3197 19 43.6431 19Z" fill="#FF0000"/>
<path d="M51.8944 19C51.2178 19 50.795 18.9595 50.6258 18.8786C50.464 18.7977 50.3758 18.5881 50.3611 18.2499L49.8867 1.27301C49.8794 0.890595 49.9603 0.644234 50.1294 0.533923C50.2986 0.416258 50.6295 0.357426 51.1222 0.357426C51.4017 0.357426 51.8061 0.357426 52.3356 0.357426C52.8725 0.357426 53.4461 0.361103 54.0565 0.368457C54.6742 0.368457 55.2478 0.368457 55.7773 0.368457C56.3142 0.368457 56.7223 0.368457 57.0018 0.368457C57.3915 0.368457 57.6195 0.438321 57.6857 0.578048C57.7519 0.717775 57.785 1.00826 57.785 1.4495C57.785 1.8981 57.7519 2.19226 57.6857 2.33199C57.6195 2.46436 57.3915 2.53055 57.0018 2.53055H53.8689L53.6704 9.30364H56.3289C56.7113 9.30364 56.9356 9.36983 57.0018 9.5022C57.0753 9.63457 57.1121 9.9177 57.1121 10.3516C57.1121 10.7781 57.0753 11.0613 57.0018 11.201C56.9356 11.3334 56.7113 11.3995 56.3289 11.3995H53.6152L53.4608 16.9482H56.5936C56.976 16.9482 57.2003 17.018 57.2665 17.1578C57.3401 17.2975 57.3768 17.5696 57.3768 17.9741C57.3768 18.3712 57.3401 18.6433 57.2665 18.7904C57.2003 18.9301 56.976 19 56.5936 19H51.8944Z" fill="#FF0000"/>
<path d="M64.8559 19.1323C63.6719 19.1323 62.7122 18.9742 61.9768 18.658C61.2414 18.3418 60.7046 17.9189 60.3663 17.3894C60.028 16.8599 59.8478 16.2753 59.8257 15.6355L59.5169 3.94253C59.4875 2.83942 59.8919 1.9459 60.7303 1.26198C61.576 0.578048 62.9512 0.236084 64.8559 0.236084C66.7606 0.236084 68.1321 0.578048 68.9705 1.26198C69.8162 1.9459 70.2244 2.83942 70.195 3.94253L70.0626 9.30364C70.0552 9.75224 69.9229 10.0354 69.6655 10.153C69.4081 10.2633 68.9374 10.3185 68.2535 10.3185C67.5622 10.3185 67.0916 10.2633 66.8415 10.153C66.5988 10.0354 66.4701 9.75224 66.4554 9.30364L66.312 3.60057C66.2973 2.95341 66.1686 2.54894 65.9259 2.38715C65.6832 2.218 65.3266 2.13343 64.8559 2.13343C64.3853 2.13343 64.0286 2.218 63.7859 2.38715C63.5432 2.54894 63.4145 2.95341 63.3998 3.60057L63.0799 15.7348C63.0652 16.3525 63.1939 16.7754 63.466 17.0033C63.7455 17.224 64.2088 17.3343 64.8559 17.3343C65.5104 17.3343 65.9737 17.224 66.2458 17.0033C66.5253 16.7754 66.654 16.3525 66.6319 15.7348L66.5878 14.4221C66.5731 13.9735 66.6908 13.694 66.9408 13.5837C67.1982 13.466 67.6652 13.4072 68.3417 13.4072C69.011 13.4072 69.4412 13.466 69.6324 13.5837C69.8309 13.694 69.9229 13.9735 69.9082 14.4221L69.8751 15.6575C69.8604 16.2973 69.6802 16.882 69.3345 17.4115C68.9963 17.9336 68.4631 18.3528 67.735 18.669C67.007 18.9779 66.0473 19.1323 64.8559 19.1323Z" fill="#FF0000"/>
<path d="M74.7949 19C74.1184 19 73.6955 18.9595 73.5264 18.8786C73.3646 18.7977 73.2763 18.5881 73.2616 18.2499L72.7873 1.27301C72.7799 1.01561 72.8204 0.824409 72.9086 0.69939C73.0042 0.567017 73.1954 0.478768 73.4822 0.434644C73.7764 0.383165 74.214 0.357426 74.7949 0.357426C75.3759 0.357426 75.8098 0.383165 76.0966 0.434644C76.3908 0.478768 76.582 0.567017 76.6702 0.69939C76.7658 0.824409 76.8099 1.01561 76.8026 1.27301L76.5709 9.30364H79.8141L79.5935 1.27301C79.5861 1.01561 79.6265 0.824409 79.7148 0.69939C79.8104 0.567017 80.0016 0.478768 80.2884 0.434644C80.5826 0.383165 81.0201 0.357426 81.6011 0.357426C82.1821 0.357426 82.616 0.383165 82.9028 0.434644C83.1969 0.478768 83.3881 0.567017 83.4764 0.69939C83.572 0.824409 83.6161 1.01561 83.6088 1.27301L83.1234 18.2499C83.116 18.5881 83.0278 18.7977 82.8587 18.8786C82.6969 18.9595 82.2777 19 81.6011 19C80.9245 19 80.5017 18.9595 80.3325 18.8786C80.1707 18.7977 80.0825 18.5881 80.0678 18.2499L79.8803 11.3995H76.5158L76.3172 18.2499C76.3099 18.5881 76.2216 18.7977 76.0525 18.8786C75.8907 18.9595 75.4715 19 74.7949 19Z" fill="#FF0000"/>
</svg>
