<svg width="16" height="18" viewBox="0 0 16 18" fill="none" xmlns="http://www.w3.org/2000/svg">
<path fill-rule="evenodd" clip-rule="evenodd" d="M1 6.75V12.75C1 14.9591 2.74609 16.75 4.9 16.75H10.75C12.9039 16.75 14.65 14.9591 14.65 12.75V6.75C14.65 4.54086 12.9039 2.75 10.75 2.75H4.9C2.74609 2.75 1 4.54086 1 6.75Z" stroke="#414552" stroke-width="1.5" stroke-linecap="round" stroke-linejoin="round"/>
<mask id="path-2-inside-1_1_17" fill="white">
<path d="M10 3.75C10 4.16421 10.3358 4.5 10.75 4.5C11.1642 4.5 11.5 4.16421 11.5 3.75H10ZM11.5 0.75C11.5 0.33579 11.1642 0 10.75 0C10.3358 0 10 0.33579 10 0.75H11.5ZM4.15002 3.75C4.15002 4.16421 4.48581 4.5 4.90002 4.5C5.31424 4.5 5.65002 4.16421 5.65002 3.75H4.15002ZM5.65002 0.75C5.65002 0.33579 5.31424 0 4.90002 0C4.48581 0 4.15002 0.33579 4.15002 0.75H5.65002ZM4.15002 8.036C4.15002 8.4502 4.48581 8.786 4.90002 8.786C5.31424 8.786 5.65002 8.4502 5.65002 8.036H4.15002ZM7.825 8.036L8.5738 8.0795C8.5746 8.065 8.575 8.0505 8.575 8.036H7.825ZM5.87502 9.75L5.80268 9.0035C5.41829 9.0407 5.12502 9.3638 5.12502 9.75C5.12502 10.1362 5.41829 10.4593 5.80268 10.4965L5.87502 9.75ZM7.825 11.464H8.575C8.575 11.4495 8.5746 11.435 8.5738 11.4205L7.825 11.464ZM5.65002 11.464C5.65002 11.0498 5.31424 10.714 4.90002 10.714C4.48581 10.714 4.15002 11.0498 4.15002 11.464H5.65002ZM9.2799 7.0437C8.9688 7.3171 8.9382 7.791 9.2117 8.1021C9.4852 8.4133 9.9591 8.4438 10.2702 8.1703L9.2799 7.0437ZM10.75 6.75H11.5C11.5 6.45541 11.3276 6.1881 11.0592 6.06668C10.7908 5.94525 10.4761 5.99219 10.2549 6.18668L10.75 6.75ZM10 12.75C10 13.1642 10.3358 13.5 10.75 13.5C11.1642 13.5 11.5 13.1642 11.5 12.75H10ZM11.5 3.75V0.75H10V3.75H11.5ZM5.65002 3.75V0.75H4.15002V3.75H5.65002ZM5.65002 8.036C5.65002 7.8473 5.71939 7.7406 5.81881 7.6629C5.93823 7.5696 6.1326 7.5005 6.3625 7.5005C6.5924 7.5005 6.7868 7.5696 6.9062 7.6629C7.0057 7.7406 7.075 7.8473 7.075 8.036H8.575C8.575 7.3677 8.2788 6.8317 7.8297 6.48087C7.4007 6.14568 6.8639 6.0005 6.3625 6.0005C5.86118 6.0005 5.32432 6.14568 4.8953 6.48087C4.44628 6.8317 4.15002 7.3677 4.15002 8.036H5.65002ZM7.0763 7.9925C7.0589 8.2913 6.9241 8.5655 6.7095 8.7541L7.6998 9.8807C8.2205 9.423 8.5335 8.7722 8.5738 8.0795L7.0763 7.9925ZM6.7095 8.7541C6.4957 8.9421 6.2206 9.03 5.94737 9.0035L5.80268 10.4965C6.4936 10.5635 7.1783 10.3391 7.6998 9.8807L6.7095 8.7541ZM5.94737 10.4965C6.2206 10.47 6.4957 10.5579 6.7095 10.7459L7.6998 9.6193C7.1783 9.1609 6.4936 8.9365 5.80268 9.0035L5.94737 10.4965ZM6.7095 10.7459C6.9241 10.9345 7.0589 11.2087 7.0763 11.5075L8.5738 11.4205C8.5335 10.7278 8.2205 10.077 7.6998 9.6193L6.7095 10.7459ZM7.075 11.464C7.075 11.6527 7.0057 11.7594 6.9062 11.8371C6.7868 11.9304 6.5924 11.9995 6.3625 11.9995C6.1326 11.9995 5.93823 11.9304 5.81881 11.8371C5.71939 11.7594 5.65002 11.6527 5.65002 11.464H4.15002C4.15002 12.1323 4.44628 12.6683 4.8953 13.0191C5.32432 13.3543 5.86118 13.4995 6.3625 13.4995C6.8639 13.4995 7.4007 13.3543 7.8297 13.0191C8.2788 12.6683 8.575 12.1323 8.575 11.464H7.075ZM10.2702 8.1703L11.2452 7.3133L10.2549 6.18668L9.2799 7.0437L10.2702 8.1703ZM10 6.75V12.75H11.5V6.75H10Z"/>
</mask>
<path d="M10 3.75C10 4.16421 10.3358 4.5 10.75 4.5C11.1642 4.5 11.5 4.16421 11.5 3.75H10ZM11.5 0.75C11.5 0.33579 11.1642 0 10.75 0C10.3358 0 10 0.33579 10 0.75H11.5ZM4.15002 3.75C4.15002 4.16421 4.48581 4.5 4.90002 4.5C5.31424 4.5 5.65002 4.16421 5.65002 3.75H4.15002ZM5.65002 0.75C5.65002 0.33579 5.31424 0 4.90002 0C4.48581 0 4.15002 0.33579 4.15002 0.75H5.65002ZM4.15002 8.036C4.15002 8.4502 4.48581 8.786 4.90002 8.786C5.31424 8.786 5.65002 8.4502 5.65002 8.036H4.15002ZM7.825 8.036L8.5738 8.0795C8.5746 8.065 8.575 8.0505 8.575 8.036H7.825ZM5.87502 9.75L5.80268 9.0035C5.41829 9.0407 5.12502 9.3638 5.12502 9.75C5.12502 10.1362 5.41829 10.4593 5.80268 10.4965L5.87502 9.75ZM7.825 11.464H8.575C8.575 11.4495 8.5746 11.435 8.5738 11.4205L7.825 11.464ZM5.65002 11.464C5.65002 11.0498 5.31424 10.714 4.90002 10.714C4.48581 10.714 4.15002 11.0498 4.15002 11.464H5.65002ZM9.2799 7.0437C8.9688 7.3171 8.9382 7.791 9.2117 8.1021C9.4852 8.4133 9.9591 8.4438 10.2702 8.1703L9.2799 7.0437ZM10.75 6.75H11.5C11.5 6.45541 11.3276 6.1881 11.0592 6.06668C10.7908 5.94525 10.4761 5.99219 10.2549 6.18668L10.75 6.75ZM10 12.75C10 13.1642 10.3358 13.5 10.75 13.5C11.1642 13.5 11.5 13.1642 11.5 12.75H10ZM11.5 3.75V0.75H10V3.75H11.5ZM5.65002 3.75V0.75H4.15002V3.75H5.65002ZM5.65002 8.036C5.65002 7.8473 5.71939 7.7406 5.81881 7.6629C5.93823 7.5696 6.1326 7.5005 6.3625 7.5005C6.5924 7.5005 6.7868 7.5696 6.9062 7.6629C7.0057 7.7406 7.075 7.8473 7.075 8.036H8.575C8.575 7.3677 8.2788 6.8317 7.8297 6.48087C7.4007 6.14568 6.8639 6.0005 6.3625 6.0005C5.86118 6.0005 5.32432 6.14568 4.8953 6.48087C4.44628 6.8317 4.15002 7.3677 4.15002 8.036H5.65002ZM7.0763 7.9925C7.0589 8.2913 6.9241 8.5655 6.7095 8.7541L7.6998 9.8807C8.2205 9.423 8.5335 8.7722 8.5738 8.0795L7.0763 7.9925ZM6.7095 8.7541C6.4957 8.9421 6.2206 9.03 5.94737 9.0035L5.80268 10.4965C6.4936 10.5635 7.1783 10.3391 7.6998 9.8807L6.7095 8.7541ZM5.94737 10.4965C6.2206 10.47 6.4957 10.5579 6.7095 10.7459L7.6998 9.6193C7.1783 9.1609 6.4936 8.9365 5.80268 9.0035L5.94737 10.4965ZM6.7095 10.7459C6.9241 10.9345 7.0589 11.2087 7.0763 11.5075L8.5738 11.4205C8.5335 10.7278 8.2205 10.077 7.6998 9.6193L6.7095 10.7459ZM7.075 11.464C7.075 11.6527 7.0057 11.7594 6.9062 11.8371C6.7868 11.9304 6.5924 11.9995 6.3625 11.9995C6.1326 11.9995 5.93823 11.9304 5.81881 11.8371C5.71939 11.7594 5.65002 11.6527 5.65002 11.464H4.15002C4.15002 12.1323 4.44628 12.6683 4.8953 13.0191C5.32432 13.3543 5.86118 13.4995 6.3625 13.4995C6.8639 13.4995 7.4007 13.3543 7.8297 13.0191C8.2788 12.6683 8.575 12.1323 8.575 11.464H7.075ZM10.2702 8.1703L11.2452 7.3133L10.2549 6.18668L9.2799 7.0437L10.2702 8.1703ZM10 6.75V12.75H11.5V6.75H10Z" fill="black"/>
<path d="M7.6998 9.8807L7.32426 10.2108L8.07535 9.55061L7.6998 9.8807ZM7.6998 9.6193L8.07535 9.94939L7.32426 9.28919L7.6998 9.6193ZM11.5 3.25H10V4.25H11.5V3.25ZM10 1.25H11.5V0.25H10V1.25ZM5.65002 3.25H4.15002V4.25H5.65002V3.25ZM4.15002 1.25H5.65002V0.25H4.15002V1.25ZM5.65002 7.536H4.15002V8.536H5.65002V7.536ZM6.82914 9.64749L7.32424 10.2108L8.07535 9.55061L7.58025 8.98731L6.82914 9.64749ZM7.58025 10.5127L8.07535 9.94939L7.32424 9.28921L6.82914 9.85251L7.58025 10.5127ZM4.15002 11.964H5.65002V10.964H4.15002V11.964ZM10.6457 7.84019L9.65544 6.71359L8.90436 7.37381L9.89466 8.50041L10.6457 7.84019ZM11.5 12.25H10V13.25H11.5V12.25ZM6.33396 9.08421L7.32426 10.2108L8.07534 9.55059L7.08504 8.42399L6.33396 9.08421ZM7.08504 11.076L8.07534 9.94941L7.32426 9.28919L6.33396 10.4158L7.08504 11.076ZM7.825 8.036V7.036L7.767 9.03432L7.825 8.036ZM8.5738 8.0795L9.57211 8.13758L9.57228 8.13459L8.5738 8.0795ZM7.6998 9.8807L8.36 10.6318L8.36 10.6318L7.6998 9.8807ZM5.87502 9.75L6.87035 9.84645L6.8797 9.75L6.87035 9.65355L5.87502 9.75ZM7.6998 9.6193L8.36 8.86822L8.36 8.86821L7.6998 9.6193ZM7.825 11.464L7.767 10.4657L7.825 12.464V11.464ZM8.5738 11.4205L9.57228 11.3654L9.57211 11.3624L8.5738 11.4205ZM9.2799 7.0437L9.94002 7.79485L9.9401 7.79479L9.2799 7.0437ZM9.2117 8.1021L9.96284 7.44196L9.96273 7.44184L9.2117 8.1021ZM10.2702 8.1703L9.61 7.4192L9.60993 7.41927L10.2702 8.1703ZM10.75 6.75L9.99887 7.41016L10.2976 7.75H10.75V6.75ZM11.0592 6.06668L10.647 6.97777L10.647 6.97779L11.0592 6.06668ZM5.81881 7.6629L5.20315 6.87489L5.20303 6.87498L5.81881 7.6629ZM6.9062 7.6629L6.29048 8.45086L6.29072 8.45106L6.9062 7.6629ZM7.075 8.036H6.075V9.036H7.075V8.036ZM7.8297 6.48087L7.21402 7.26886L7.21409 7.26892L7.8297 6.48087ZM4.8953 6.48087L4.27963 5.69286L4.27962 5.69287L4.8953 6.48087ZM7.0763 7.9925L7.1343 6.99418L6.13611 6.93619L6.07799 7.93437L7.0763 7.9925ZM6.7095 8.7541L6.04936 8.00296L6.04915 8.00314L6.7095 8.7541ZM5.94737 9.0035L6.0439 8.00817L5.0485 7.91163L4.95203 8.90704L5.94737 9.0035ZM5.94737 10.4965L4.95203 10.593L5.0485 11.5884L6.0439 11.4918L5.94737 10.4965ZM6.7095 10.7459L6.04915 11.4969L6.04936 11.497L6.7095 10.7459ZM7.0763 11.5075L6.07799 11.5656L6.13611 12.5638L7.1343 12.5058L7.0763 11.5075ZM7.075 11.464V10.464H6.075V11.464H7.075ZM6.9062 11.8371L6.29072 11.0489L6.29048 11.0491L6.9062 11.8371ZM5.81881 11.8371L5.20303 12.625L5.20315 12.6251L5.81881 11.8371ZM4.8953 13.0191L5.51097 12.2311L5.51094 12.2311L4.8953 13.0191ZM7.8297 13.0191L7.21412 12.231L7.214 12.2311L7.8297 13.0191ZM11.2452 7.3133L11.9054 8.0644L12.6565 7.40419L11.9963 6.6531L11.2452 7.3133ZM10 6.75V5.75H9V6.75H10ZM9 3.75C9 4.7165 9.78352 5.5 10.75 5.5V3.5C10.8881 3.5 11 3.61192 11 3.75H9ZM10.75 5.5C11.7165 5.5 12.5 4.7165 12.5 3.75H10.5C10.5 3.61192 10.6119 3.5 10.75 3.5V5.5ZM12.5 0.75C12.5 -0.216503 11.7165 -1 10.75 -1V1C10.6119 1 10.5 0.888083 10.5 0.75H12.5ZM10.75 -1C9.78352 -1 9 -0.216503 9 0.75H11C11 0.888083 10.8881 1 10.75 1V-1ZM3.15002 3.75C3.15002 4.71649 3.93352 5.5 4.90002 5.5V3.5C5.03809 3.5 5.15002 3.61193 5.15002 3.75H3.15002ZM4.90002 5.5C5.86653 5.5 6.65002 4.71649 6.65002 3.75H4.65002C4.65002 3.61193 4.76194 3.5 4.90002 3.5V5.5ZM6.65002 0.75C6.65002 -0.216486 5.86653 -1 4.90002 -1V1C4.76194 1 4.65002 0.888066 4.65002 0.75H6.65002ZM4.90002 -1C3.93352 -1 3.15002 -0.216495 3.15002 0.75H5.15002C5.15002 0.888075 5.03809 1 4.90002 1V-1ZM3.15002 8.036C3.15002 9.00248 3.93351 9.786 4.90002 9.786V7.786C5.0381 7.786 5.15002 7.89792 5.15002 8.036H3.15002ZM4.90002 9.786C5.86654 9.786 6.65002 9.00247 6.65002 8.036H4.65002C4.65002 7.89793 4.76193 7.786 4.90002 7.786V9.786ZM7.767 9.03432L8.5158 9.07782L8.63179 7.08118L7.88299 7.03768L7.767 9.03432ZM9.57228 8.13459C9.57409 8.10176 9.575 8.06889 9.575 8.036H7.575C7.575 8.03211 7.5751 8.02824 7.57532 8.02441L9.57228 8.13459ZM8.575 7.036H7.825V9.036H8.575V7.036ZM6.87035 9.65355L6.79801 8.90705L4.80734 9.09995L4.87968 9.84645L6.87035 9.65355ZM5.70635 8.00815C4.80924 8.09497 4.12502 8.84897 4.12502 9.75H6.12502C6.12502 9.87863 6.02734 9.98643 5.899 9.99885L5.70635 8.00815ZM4.12502 9.75C4.12502 10.651 4.80924 11.405 5.70635 11.4918L5.899 9.50115C6.02734 9.51357 6.12502 9.62137 6.12502 9.75H4.12502ZM6.79801 10.593L6.87035 9.84645L4.87968 9.65355L4.80734 10.4L6.79801 10.593ZM7.825 12.464H8.575V10.464H7.825V12.464ZM9.575 11.464C9.575 11.4311 9.57409 11.3982 9.57228 11.3654L7.57532 11.4756C7.5751 11.4718 7.575 11.4679 7.575 11.464H9.575ZM8.5158 10.4222L7.767 10.4657L7.88299 12.4623L8.63179 12.4188L8.5158 10.4222ZM6.65002 11.464C6.65002 10.4975 5.86654 9.714 4.90002 9.714V11.714C4.76193 11.714 4.65002 11.6021 4.65002 11.464H6.65002ZM4.90002 9.714C3.93351 9.714 3.15002 10.4975 3.15002 11.464H5.15002C5.15002 11.6021 5.0381 11.714 4.90002 11.714V9.714ZM8.61977 6.29255C7.89386 6.93049 7.82238 8.03633 8.46066 8.76236L9.96273 7.44184C10.054 7.54567 10.0437 7.70371 9.94002 7.79485L8.61977 6.29255ZM8.46056 8.76224C9.09867 9.48832 10.2045 9.55954 10.9305 8.92133L9.60993 7.41927C9.71368 7.32806 9.87172 7.33828 9.96284 7.44196L8.46056 8.76224ZM10.75 7.75H11.5V5.75H10.75V7.75ZM12.5 6.75C12.5 6.06277 12.0978 5.43895 11.4714 5.15557L10.647 6.97779C10.5574 6.93725 10.5 6.84805 10.5 6.75H12.5ZM11.4714 5.15559C10.8452 4.87228 10.1109 4.98171 9.59459 5.43569L10.9152 6.93767C10.8413 7.00267 10.7364 7.01822 10.647 6.97777L11.4714 5.15559ZM9.50377 6.84684L9.99887 7.41016L11.5011 6.08984L11.006 5.52652L9.50377 6.84684ZM9 12.75C9 13.7165 9.78351 14.5 10.75 14.5V12.5C10.8881 12.5 11 12.6119 11 12.75H9ZM10.75 14.5C11.7165 14.5 12.5 13.7165 12.5 12.75H10.5C10.5 12.6119 10.6119 12.5 10.75 12.5V14.5ZM12.5 3.75V0.75H10.5V3.75H12.5ZM9 0.75V3.75H11V0.75H9ZM6.65002 3.75V0.75H4.65002V3.75H6.65002ZM3.15002 0.75V3.75H5.15002V0.75H3.15002ZM6.65002 8.036C6.65002 8.06719 6.64339 8.15062 6.59285 8.25244C6.5418 8.35528 6.47431 8.41977 6.43459 8.45082L5.20303 6.87498C5.06388 6.98373 4.912 7.14042 4.80141 7.36321C4.69133 7.58498 4.65002 7.81611 4.65002 8.036H6.65002ZM6.43446 8.45091C6.40849 8.47121 6.3875 8.48323 6.37446 8.48985C6.36108 8.49665 6.35219 8.49972 6.34851 8.50088C6.34171 8.50301 6.34673 8.5005 6.3625 8.5005V6.5005C5.95005 6.5005 5.5279 6.62117 5.20315 6.87489L6.43446 8.45091ZM6.3625 8.5005C6.37827 8.5005 6.3833 8.50301 6.37652 8.50088C6.37284 8.49973 6.36395 8.49665 6.35055 8.48985C6.3375 8.48323 6.31649 8.47119 6.29048 8.45086L7.52192 6.87494C7.19712 6.62114 6.77488 6.5005 6.3625 6.5005V8.5005ZM6.29072 8.45106C6.25084 8.41991 6.18324 8.35531 6.13214 8.25235C6.08158 8.15046 6.075 8.06703 6.075 8.036H8.075C8.075 7.81628 8.03377 7.58514 7.92368 7.3633C7.81306 7.14039 7.66105 6.98359 7.52167 6.87474L6.29072 8.45106ZM7.075 9.036H8.575V7.036H7.075V9.036ZM9.575 8.036C9.575 7.04768 9.12725 6.22554 8.44531 5.69282L7.21409 7.26892C7.43034 7.43786 7.575 7.68772 7.575 8.036H9.575ZM8.44538 5.69288C7.80963 5.19615 7.04433 5.0005 6.3625 5.0005V7.0005C6.68347 7.0005 6.99177 7.09521 7.21402 7.26886L8.44538 5.69288ZM6.3625 5.0005C5.68075 5.0005 4.9154 5.19614 4.27963 5.69286L5.51096 7.26888C5.73324 7.09522 6.04161 7.0005 6.3625 7.0005V5.0005ZM4.27962 5.69287C3.59786 6.22554 3.15002 7.04763 3.15002 8.036H5.15002C5.15002 7.68777 5.29469 7.43786 5.51098 7.26887L4.27962 5.69287ZM6.07799 7.93437C6.07588 7.97059 6.05988 7.99371 6.04936 8.00296L7.36964 9.50524C7.78832 9.13729 8.04191 8.61201 8.07461 8.05063L6.07799 7.93437ZM8.36 10.6318C9.08483 9.99466 9.51654 9.09276 9.57211 8.13758L7.57549 8.02142C7.55046 8.45164 7.35616 8.85134 7.03959 9.12962L8.36 10.6318ZM8.6318 7.08118L7.1343 6.99418L7.0183 8.99082L8.5158 9.07782L8.6318 7.08118ZM6.04915 8.00314C6.04432 8.00739 6.04153 8.00824 6.04147 8.00826C6.04129 8.00832 6.04229 8.00801 6.0439 8.00817L5.85083 9.99883C6.40234 10.0523 6.95069 9.87363 7.36984 9.50506L6.04915 8.00314ZM4.95203 8.90704L4.80734 10.4L6.79801 10.593L6.9427 9.09996L4.95203 8.90704ZM5.70616 11.4918C6.67571 11.5859 7.6335 11.2704 8.36 10.6318L7.03959 9.12961C6.72309 9.40782 6.31148 9.54115 5.8992 9.50117L5.70616 11.4918ZM6.0439 11.4918C6.04229 11.492 6.04129 11.4917 6.04147 11.4917C6.04153 11.4918 6.04432 11.4926 6.04915 11.4969L7.36984 9.99494C6.95069 9.62637 6.40234 9.44768 5.85083 9.50117L6.0439 11.4918ZM8.36 8.86821C7.6335 8.22962 6.67571 7.91415 5.70616 8.00817L5.8992 9.99883C6.31148 9.95885 6.72309 10.0922 7.03959 10.3704L8.36 8.86821ZM4.80734 9.09996L4.95203 10.593L6.9427 10.4L6.79801 8.90704L4.80734 9.09996ZM6.04936 11.497C6.05988 11.5063 6.07588 11.5294 6.07799 11.5656L8.07461 11.4494C8.04191 10.888 7.78832 10.3627 7.36964 9.99476L6.04936 11.497ZM7.1343 12.5058L8.6318 12.4188L8.5158 10.4222L7.0183 10.5092L7.1343 12.5058ZM9.57211 11.3624C9.51654 10.4072 9.08483 9.50534 8.36 8.86822L7.03959 10.3704C7.35616 10.6487 7.55046 11.0484 7.57549 11.4786L9.57211 11.3624ZM6.075 11.464C6.075 11.433 6.08158 11.3495 6.13214 11.2477C6.18324 11.1447 6.25084 11.0801 6.29072 11.0489L7.52167 12.6253C7.66105 12.5164 7.81306 12.3596 7.92368 12.1367C8.03377 11.9149 8.075 11.6837 8.075 11.464H6.075ZM6.29048 11.0491C6.31649 11.0288 6.3375 11.0168 6.35055 11.0101C6.36395 11.0033 6.37284 11.0003 6.37652 10.9991C6.3833 10.997 6.37827 10.9995 6.3625 10.9995V12.9995C6.77488 12.9995 7.19712 12.8789 7.52192 12.6251L6.29048 11.0491ZM6.3625 10.9995C6.34673 10.9995 6.34171 10.997 6.34851 10.9991C6.35219 11.0003 6.36108 11.0034 6.37446 11.0101C6.3875 11.0168 6.40849 11.0288 6.43446 11.0491L5.20315 12.6251C5.5279 12.8788 5.95005 12.9995 6.3625 12.9995V10.9995ZM6.43459 11.0492C6.47431 11.0802 6.5418 11.1447 6.59285 11.2476C6.64339 11.3494 6.65002 11.4328 6.65002 11.464H4.65002C4.65002 11.6839 4.69133 11.915 4.80141 12.1368C4.912 12.3596 5.06388 12.5163 5.20303 12.625L6.43459 11.0492ZM3.15002 11.464C3.15002 12.4524 3.59786 13.2745 4.27965 13.8071L5.51094 12.2311C5.2947 12.0621 5.15002 11.8122 5.15002 11.464H3.15002ZM4.27962 13.8071C4.91537 14.3038 5.68072 14.4995 6.3625 14.4995V12.4995C6.04163 12.4995 5.73326 12.4048 5.51097 12.2311L4.27962 13.8071ZM6.3625 14.4995C7.04436 14.4995 7.80965 14.3038 8.44539 13.8071L7.214 12.2311C6.99174 12.4048 6.68344 12.4995 6.3625 12.4995V14.4995ZM8.44528 13.8072C9.12726 13.2745 9.575 12.4523 9.575 11.464H7.575C7.575 11.8123 7.43034 12.0621 7.21412 12.231L8.44528 13.8072ZM8.575 10.464H7.075V12.464H8.575V10.464ZM10.9304 8.9214L11.9054 8.0644L10.585 6.5622L9.61 7.4192L10.9304 8.9214ZM11.9963 6.6531L11.006 5.52647L9.50381 6.84688L10.4941 7.97351L11.9963 6.6531ZM9.59469 5.43559L8.61969 6.29261L9.9401 7.79479L10.9151 6.93777L9.59469 5.43559ZM9 6.75V12.75H11V6.75H9ZM12.5 12.75V6.75H10.5V12.75H12.5ZM11.5 5.75H10V7.75H11.5V5.75Z" fill="#414552" mask="url(#path-2-inside-1_1_17)"/>
</svg>
