<svg width="16" height="18" viewBox="0 0 16 18" fill="none" xmlns="http://www.w3.org/2000/svg">
<path fill-rule="evenodd" clip-rule="evenodd" d="M9.75 8.25C9.75 9.3546 8.8546 10.25 7.75 10.25C6.6454 10.25 5.75 9.3546 5.75 8.25C5.75 7.1454 6.6454 6.25 7.75 6.25C8.8546 6.25 9.75 7.1454 9.75 8.25Z" stroke="#414552" stroke-width="1.5" stroke-linecap="round" stroke-linejoin="round"/>
<path d="M14.9709 13.25H14.467C14.429 13.5351 14.3589 13.8101 14.2606 14.0712L14.4955 14.2467L14.9709 13.25ZM14.9709 13.25C14.9245 13.6463 14.8235 14.026 14.6757 14.3813L14.4982 14.2487L14.9709 13.25ZM9.75 1.5H9.5V1.25H10V1.5H9.75ZM6 1.5H5.75H5.5V1.25H6V1.5ZM0.529102 6.25C0.757347 4.30241 2.30241 2.75735 4.25 2.5291V3.03304C2.57889 3.25569 1.25569 4.57889 1.03304 6.25H0.529102ZM14.467 6.25C14.2443 4.57889 12.9211 3.2557 11.25 3.03304V2.5291C13.1976 2.75734 14.7427 4.30241 14.9709 6.25H14.467ZM14.5 7.25H15V12.25H14.5V7.25ZM1.03304 13.25C1.07103 13.5351 1.14105 13.8101 1.23936 14.0712L1.00302 14.2477C1.00261 14.2481 1.00223 14.2483 1.00183 14.2486C1.0018 14.2487 1.00178 14.2487 1.00176 14.2487L0.824322 14.3813C0.676522 14.026 0.575546 13.6463 0.529101 13.25H1.03304ZM1 12.25H0.5V7.25H1V12.25ZM10.25 17H5.25V16.5H10.25V17ZM11.25 16.467C11.7498 16.4004 12.2184 16.2354 12.6358 15.992C12.7592 16.0749 12.8811 16.1611 13.0012 16.2509C13.0014 16.251 13.0016 16.2512 13.0018 16.2513L13.0018 16.2514L13.0766 16.3072C12.5398 16.659 11.9186 16.8925 11.25 16.9709V16.467ZM2.55965 14.413C5.76122 12.537 9.73878 12.537 12.9403 14.413C12.8367 14.5493 12.7207 14.6756 12.5939 14.7902C9.5959 13.0779 5.90408 13.0779 2.90608 14.7902C2.77931 14.6756 2.66327 14.5493 2.55965 14.413ZM2.4982 16.2513C2.49922 16.2506 2.50023 16.2498 2.50124 16.2491C2.62058 16.16 2.74161 16.0743 2.86422 15.9921C3.28161 16.2354 3.75025 16.4004 4.25 16.467V16.9709C3.58137 16.8925 2.96018 16.659 2.42343 16.3072L2.49727 16.252C2.49757 16.2518 2.49788 16.2516 2.49818 16.2514L2.4982 16.2513ZM8.5 2.5V2.75V3H7V2.75V2.5H8.5Z" fill="black" stroke="#414552"/>
</svg>
