<svg width="16" height="17" viewBox="0 0 16 17" fill="none" xmlns="http://www.w3.org/2000/svg">
<path fill-rule="evenodd" clip-rule="evenodd" d="M12.95 1.12758L14.516 2.37458C14.6672 2.51691 14.7525 2.71571 14.7513 2.92339C14.7502 3.13106 14.6628 3.32892 14.51 3.46958L13.32 4.89358L9.271 9.7226C9.2001 9.8037 9.1058 9.8607 9.001 9.8856L6.901 10.3616C6.6255 10.3754 6.3856 10.1751 6.35 9.9016V7.7436C6.3571 7.6395 6.399 7.5409 6.469 7.4636L10.443 2.97058L11.807 1.34158C12.0768 0.987859 12.5704 0.89545 12.95 1.12758Z" stroke="#414552" stroke-width="1.5" stroke-linecap="round" stroke-linejoin="round"/>
<mask id="path-2-inside-1_1_20" fill="white">
<path d="M7.283 3.61865C7.6972 3.61865 8.033 3.28287 8.033 2.86865C8.033 2.45444 7.6972 2.11865 7.283 2.11865V3.61865ZM4.48301 2.86865V2.11865H4.48121L4.48301 2.86865ZM0.75001 6.6187H1.50001V6.617L0.75001 6.6187ZM0.75001 12.2437L1.50001 12.2453V12.2437H0.75001ZM4.48301 15.9937L4.48121 16.7437H4.48301V15.9937ZM10.083 15.9937V16.7437H10.0848L10.083 15.9937ZM13.816 12.2437H13.066V12.2453L13.816 12.2437ZM14.566 8.4937C14.566 8.0794 14.2302 7.7437 13.816 7.7437C13.4018 7.7437 13.066 8.0794 13.066 8.4937H14.566ZM11.1363 2.68446C10.9782 2.30159 10.5397 2.11934 10.1568 2.2774C9.7739 2.43546 9.5917 2.87397 9.7498 3.25684L11.1363 2.68446ZM13.4819 5.62197C13.8863 5.53257 14.1417 5.13222 14.0523 4.72777C13.9629 4.32332 13.5626 4.06792 13.1581 4.15733L13.4819 5.62197ZM3.55001 12.4317C3.1358 12.4317 2.80001 12.7674 2.80001 13.1817C2.80001 13.5959 3.1358 13.9317 3.55001 13.9317V12.4317ZM11.017 13.9317C11.4312 13.9317 11.767 13.5959 11.767 13.1817C11.767 12.7674 11.4312 12.4317 11.017 12.4317V13.9317ZM7.283 2.11865H4.48301V3.61865H7.283V2.11865ZM4.48121 2.11865C2.00081 2.12461 -0.00529948 4.13986 1.0517e-05 6.6203L1.50001 6.617C1.49647 4.96492 2.83269 3.62262 4.48481 3.61865L4.48121 2.11865ZM1.0517e-05 6.6187V12.2437H1.50001V6.6187H1.0517e-05ZM1.0517e-05 12.242C-0.00529948 14.7224 2.00081 16.7377 4.48121 16.7437L4.48481 15.2437C2.83269 15.2397 1.49647 13.8974 1.50001 12.2453L1.0517e-05 12.242ZM4.48301 16.7437H10.083V15.2437H4.48301V16.7437ZM10.0848 16.7437C12.5652 16.7377 14.5713 14.7224 14.566 12.242L13.066 12.2453C13.0695 13.8974 11.7333 15.2397 10.0812 15.2437L10.0848 16.7437ZM14.566 12.2437V8.4937H13.066V12.2437H14.566ZM9.7498 3.25684C9.9447 3.72897 10.3423 4.39815 10.9366 4.91521C11.5444 5.44412 12.4179 5.85718 13.4819 5.62197L13.1581 4.15733C12.6931 4.26012 12.2891 4.10369 11.9212 3.7836C11.5397 3.45165 11.2634 2.99233 11.1363 2.68446L9.7498 3.25684ZM3.55001 13.9317H11.017V12.4317H3.55001V13.9317Z"/>
</mask>
<path d="M7.283 3.61865C7.6972 3.61865 8.033 3.28287 8.033 2.86865C8.033 2.45444 7.6972 2.11865 7.283 2.11865V3.61865ZM4.48301 2.86865V2.11865H4.48121L4.48301 2.86865ZM0.75001 6.6187H1.50001V6.617L0.75001 6.6187ZM0.75001 12.2437L1.50001 12.2453V12.2437H0.75001ZM4.48301 15.9937L4.48121 16.7437H4.48301V15.9937ZM10.083 15.9937V16.7437H10.0848L10.083 15.9937ZM13.816 12.2437H13.066V12.2453L13.816 12.2437ZM14.566 8.4937C14.566 8.0794 14.2302 7.7437 13.816 7.7437C13.4018 7.7437 13.066 8.0794 13.066 8.4937H14.566ZM11.1363 2.68446C10.9782 2.30159 10.5397 2.11934 10.1568 2.2774C9.7739 2.43546 9.5917 2.87397 9.7498 3.25684L11.1363 2.68446ZM13.4819 5.62197C13.8863 5.53257 14.1417 5.13222 14.0523 4.72777C13.9629 4.32332 13.5626 4.06792 13.1581 4.15733L13.4819 5.62197ZM3.55001 12.4317C3.1358 12.4317 2.80001 12.7674 2.80001 13.1817C2.80001 13.5959 3.1358 13.9317 3.55001 13.9317V12.4317ZM11.017 13.9317C11.4312 13.9317 11.767 13.5959 11.767 13.1817C11.767 12.7674 11.4312 12.4317 11.017 12.4317V13.9317ZM7.283 2.11865H4.48301V3.61865H7.283V2.11865ZM4.48121 2.11865C2.00081 2.12461 -0.00529948 4.13986 1.0517e-05 6.6203L1.50001 6.617C1.49647 4.96492 2.83269 3.62262 4.48481 3.61865L4.48121 2.11865ZM1.0517e-05 6.6187V12.2437H1.50001V6.6187H1.0517e-05ZM1.0517e-05 12.242C-0.00529948 14.7224 2.00081 16.7377 4.48121 16.7437L4.48481 15.2437C2.83269 15.2397 1.49647 13.8974 1.50001 12.2453L1.0517e-05 12.242ZM4.48301 16.7437H10.083V15.2437H4.48301V16.7437ZM10.0848 16.7437C12.5652 16.7377 14.5713 14.7224 14.566 12.242L13.066 12.2453C13.0695 13.8974 11.7333 15.2397 10.0812 15.2437L10.0848 16.7437ZM14.566 12.2437V8.4937H13.066V12.2437H14.566ZM9.7498 3.25684C9.9447 3.72897 10.3423 4.39815 10.9366 4.91521C11.5444 5.44412 12.4179 5.85718 13.4819 5.62197L13.1581 4.15733C12.6931 4.26012 12.2891 4.10369 11.9212 3.7836C11.5397 3.45165 11.2634 2.99233 11.1363 2.68446L9.7498 3.25684ZM3.55001 13.9317H11.017V12.4317H3.55001V13.9317Z" fill="black"/>
<path d="M6.783 2.11865V3.61865H7.783V2.11865H6.783ZM13.066 8.9937H14.566V7.9937H13.066V8.9937ZM9.94059 3.71901L11.3271 3.14663L10.9455 2.2223L9.55901 2.79468L9.94059 3.71901ZM12.6699 4.26526L12.9937 5.72991L13.9701 5.51404L13.6463 4.0494L12.6699 4.26526ZM4.05001 13.9317V12.4317H3.05001V13.9317H4.05001ZM10.517 12.4317V13.9317H11.517V12.4317H10.517ZM4.48301 2.86865L3.48301 2.87105L5.48301 2.86865H4.48301ZM4.48121 2.11865V1.11865L4.47881 1.11866L4.48121 2.11865ZM0.75001 6.6187L0.747743 5.61871L0.75001 7.6187V6.6187ZM1.50001 6.617H2.50001L2.50001 6.61486L1.50001 6.617ZM0.75001 12.2437V11.2437L0.747877 13.2437L0.75001 12.2437ZM1.50001 12.2453L2.50001 12.2474V12.2453H1.50001ZM4.48301 15.9937H5.48301L3.48301 15.9913L4.48301 15.9937ZM4.48121 16.7437L4.47879 17.7437H4.48121V16.7437ZM10.083 15.9937L11.083 15.9913L9.083 15.9937H10.083ZM10.0848 16.7437V17.7437L10.0872 17.7437L10.0848 16.7437ZM13.816 12.2437L13.8181 13.2437L13.816 11.2437V12.2437ZM13.066 12.2453H12.066L12.066 12.2474L13.066 12.2453ZM11.1363 2.68446L12.0606 2.30287L12.0606 2.30279L11.1363 2.68446ZM9.7498 3.25684L10.6741 2.87527L10.6741 2.87517L9.7498 3.25684ZM13.4819 5.62197L13.6978 6.5984L13.6978 6.5984L13.4819 5.62197ZM13.1581 4.15733L12.9423 3.1809L12.9423 3.1809L13.1581 4.15733ZM4.48301 3.61865H3.48301V4.61865H4.48301V3.61865ZM1.0517e-05 6.6203L-0.999987 6.62244L-0.997846 7.6225L0.00221096 7.6203L1.0517e-05 6.6203ZM4.48481 3.61865L4.48721 4.61865L5.48721 4.61625L5.48481 3.61625L4.48481 3.61865ZM1.0517e-05 6.6187V5.6187H-0.99999V6.6187H1.0517e-05ZM1.0517e-05 12.2437H-0.99999V13.2437H1.0517e-05V12.2437ZM1.0517e-05 12.242L0.00221032 11.242L-0.997846 11.2398L-0.999987 12.2399L1.0517e-05 12.242ZM4.48481 15.2437L5.48481 15.2461L5.48721 14.2461L4.48723 14.2437L4.48481 15.2437ZM10.083 15.2437H11.083V14.2437H10.083V15.2437ZM4.48301 15.2437V14.2437H3.48301V15.2437H4.48301ZM14.566 12.242L15.566 12.2399L15.5639 11.2398L14.5638 11.242L14.566 12.242ZM10.0812 15.2437L10.0788 14.2437L9.0788 14.2461L9.0812 15.2461L10.0812 15.2437ZM14.566 12.2437V13.2437H15.566V12.2437H14.566ZM10.9366 4.91521L11.5931 4.16085L11.593 4.16078L10.9366 4.91521ZM11.9212 3.7836L11.2648 4.538L11.2648 4.53803L11.9212 3.7836ZM7.283 4.61865C8.24947 4.61865 9.033 3.83518 9.033 2.86865H7.033C7.033 2.73057 7.14493 2.61865 7.283 2.61865V4.61865ZM9.033 2.86865C9.033 1.90215 8.24948 1.11865 7.283 1.11865V3.11865C7.14493 3.11865 7.033 3.00674 7.033 2.86865H9.033ZM5.48301 2.86865V2.11865H3.48301V2.86865H5.48301ZM4.48301 1.11865H4.48121V3.11865H4.48301V1.11865ZM3.48121 2.12105L3.48301 2.87105L5.48301 2.86625L5.48121 2.11625L3.48121 2.12105ZM0.75001 7.6187H1.50001V5.6187H0.75001V7.6187ZM2.50001 6.6187V6.617H0.50001V6.6187H2.50001ZM1.49774 5.617L0.747743 5.61871L0.752278 7.6187L1.50228 7.617L1.49774 5.617ZM0.747877 13.2437L1.49788 13.2453L1.50214 11.2453L0.752144 11.2437L0.747877 13.2437ZM2.50001 12.2453V12.2437H0.50001V12.2453H2.50001ZM1.50001 11.2437H0.75001V13.2437H1.50001V11.2437ZM3.48301 15.9913L3.48121 16.7413L5.48121 16.7461L5.48301 15.9961L3.48301 15.9913ZM4.48121 17.7437H4.48301V15.7437H4.48121V17.7437ZM5.48301 16.7437V15.9937H3.48301V16.7437H5.48301ZM9.083 15.9937V16.7437H11.083V15.9937H9.083ZM10.083 17.7437H10.0848V15.7437H10.083V17.7437ZM11.0848 16.7413L11.083 15.9913L9.083 15.9961L9.0848 16.7461L11.0848 16.7413ZM13.816 11.2437H13.066V13.2437H13.816V11.2437ZM12.066 12.2437V12.2453H14.066V12.2437H12.066ZM13.0681 13.2453L13.8181 13.2437L13.8139 11.2437L13.0639 11.2453L13.0681 13.2453ZM15.566 8.4937C15.566 7.52703 14.7824 6.7437 13.816 6.7437V8.7437C13.678 8.7437 13.566 8.63177 13.566 8.4937H15.566ZM13.816 6.7437C12.8496 6.7437 12.066 7.52703 12.066 8.4937H14.066C14.066 8.63177 13.954 8.7437 13.816 8.7437V6.7437ZM12.0606 2.30279C11.6917 1.40953 10.6686 0.984267 9.77524 1.35306L10.5384 3.20174C10.4108 3.25442 10.2647 3.19366 10.212 3.06614L12.0606 2.30279ZM9.77524 1.35306C8.88174 1.72189 8.45661 2.74518 8.8255 3.63852L10.6741 2.87517C10.7268 3.00277 10.6661 3.14903 10.5384 3.20174L9.77524 1.35306ZM13.6978 6.5984C14.6414 6.38978 15.2373 5.45562 15.0287 4.51194L13.0759 4.9436C13.0461 4.80883 13.1312 4.67537 13.266 4.64555L13.6978 6.5984ZM15.0287 4.51194C14.8201 3.56824 13.8861 2.97229 12.9423 3.1809L13.3739 5.13376C13.2391 5.16356 13.1057 5.0784 13.0759 4.9436L15.0287 4.51194ZM3.55001 11.4317C2.58359 11.4317 1.80001 12.215 1.80001 13.1817H3.80001C3.80001 13.3198 3.68801 13.4317 3.55001 13.4317V11.4317ZM1.80001 13.1817C1.80001 14.1482 2.58351 14.9317 3.55001 14.9317V12.9317C3.68809 12.9317 3.80001 13.0436 3.80001 13.1817H1.80001ZM11.017 14.9317C11.9835 14.9317 12.767 14.1482 12.767 13.1817H10.767C10.767 13.0436 10.8789 12.9317 11.017 12.9317V14.9317ZM12.767 13.1817C12.767 12.215 11.9834 11.4317 11.017 11.4317V13.4317C10.879 13.4317 10.767 13.3198 10.767 13.1817H12.767ZM7.283 1.11865H4.48301V3.11865H7.283V1.11865ZM3.48301 2.11865V3.61865H5.48301V2.11865H3.48301ZM4.48301 4.61865H7.283V2.61865H4.48301V4.61865ZM4.47881 1.11866C1.44622 1.12594 -1.00648 3.58983 -0.999987 6.62244L1.00001 6.61816C0.99588 4.6899 2.5554 3.12328 4.48361 3.11865L4.47881 1.11866ZM0.00221096 7.6203L1.50221 7.617L1.49781 5.617L-0.00218992 5.62031L0.00221096 7.6203ZM2.50001 6.61486C2.49765 5.51497 3.38726 4.62129 4.48721 4.61865L4.48241 2.61866C2.27812 2.62395 0.49529 4.41487 0.500013 6.61914L2.50001 6.61486ZM5.48481 3.61625L5.48121 2.11625L3.48121 2.12105L3.48481 3.62105L5.48481 3.61625ZM-0.99999 6.6187V12.2437H1.00001V6.6187H-0.99999ZM1.0517e-05 13.2437H1.50001V11.2437H1.0517e-05V13.2437ZM2.50001 12.2437V6.6187H0.50001V12.2437H2.50001ZM1.50001 5.6187H1.0517e-05V7.6187H1.50001V5.6187ZM-0.999987 12.2399C-1.00648 15.2724 1.44621 17.7364 4.47879 17.7437L4.48363 15.7437C2.55541 15.739 0.99588 14.1724 1.00001 12.2441L-0.999987 12.2399ZM5.48121 16.7461L5.48481 15.2461L3.48481 15.2413L3.48121 16.7413L5.48121 16.7461ZM4.48723 14.2437C3.38727 14.241 2.49765 13.3474 2.50001 12.2474L0.500013 12.2432C0.49529 14.4475 2.27811 16.2384 4.48239 16.2437L4.48723 14.2437ZM1.50221 11.2453L0.00221032 11.242L-0.00218929 13.242L1.49781 13.2453L1.50221 11.2453ZM4.48301 17.7437H10.083V15.7437H4.48301V17.7437ZM11.083 16.7437V15.2437H9.083V16.7437H11.083ZM10.083 14.2437H4.48301V16.2437H10.083V14.2437ZM3.48301 15.2437V16.7437H5.48301V15.2437H3.48301ZM10.0872 17.7437C13.1198 17.7364 15.5725 15.2724 15.566 12.2399L13.566 12.2441C13.5701 14.1724 12.0106 15.739 10.0824 15.7437L10.0872 17.7437ZM14.5638 11.242L13.0638 11.2453L13.0682 13.2453L14.5682 13.242L14.5638 11.242ZM12.066 12.2474C12.0683 13.3474 11.1787 14.241 10.0788 14.2437L10.0836 16.2437C12.2879 16.2384 14.0707 14.4474 14.066 12.2432L12.066 12.2474ZM9.0812 15.2461L9.0848 16.7461L11.0848 16.7413L11.0812 15.2413L9.0812 15.2461ZM15.566 12.2437V8.4937H13.566V12.2437H15.566ZM12.066 8.4937V12.2437H14.066V8.4937H12.066ZM13.066 13.2437H14.566V11.2437H13.066V13.2437ZM8.82546 3.63842C9.06552 4.21993 9.54399 5.02909 10.2802 5.66964L11.593 4.16078C11.1406 3.76721 10.8239 3.23801 10.6741 2.87527L8.82546 3.63842ZM10.2801 5.66958C11.0463 6.33631 12.2328 6.92225 13.6978 6.5984L13.266 4.64555C12.603 4.79212 12.0425 4.55193 11.5931 4.16085L10.2801 5.66958ZM12.9423 3.1809C12.8837 3.19385 12.8471 3.18924 12.8107 3.17748C12.7652 3.1628 12.6878 3.12508 12.5776 3.02918L11.2648 4.53803C11.7961 5.00031 12.5131 5.32406 13.3739 5.13376L12.9423 3.1809ZM12.5776 3.0292C12.3379 2.82061 12.1425 2.50115 12.0606 2.30287L10.212 3.06606C10.3843 3.48351 10.7415 4.0827 11.2648 4.538L12.5776 3.0292ZM3.55001 14.9317H11.017V12.9317H3.55001V14.9317ZM11.017 11.4317H3.55001V13.4317H11.017V11.4317Z" fill="#414552" mask="url(#path-2-inside-1_1_20)"/>
</svg>
